<svg width="180" height="180" viewBox="0 0 180 180" fill="none" xmlns="http://www.w3.org/2000/svg">
<path d="M119.059 16C119.404 16 119.75 16 120.114 16C120.962 26.4373 116.967 34.236 112.111 39.8835C107.347 45.4921 100.823 50.9317 90.2718 50.1064C89.568 39.8186 93.5696 32.5983 98.4184 26.9637C102.915 21.7126 111.16 17.0398 119.059 16Z" fill="black"/>
<path d="M151 124.636C151 124.74 151 124.831 151 124.928C148.035 133.884 143.805 141.559 138.643 148.682C133.931 155.148 128.157 163.851 117.847 163.851C108.937 163.851 103.02 158.138 93.889 157.982C84.2304 157.826 78.9188 162.759 70.0878 164C69.0777 164 68.0675 164 67.0769 164C60.5922 163.064 55.3588 157.943 51.5462 153.329C40.3038 139.694 31.6163 122.082 30 99.5437C30 97.334 30 95.1309 30 92.9213C30.6843 76.7909 38.5442 63.6761 48.9914 57.3202C54.505 53.9407 62.0846 51.0617 70.5245 52.3485C74.1416 52.9074 77.8369 54.1422 81.076 55.364C84.1456 56.5403 87.9843 58.6264 91.621 58.516C94.0845 58.4445 96.535 57.1642 99.0181 56.2608C106.291 53.6418 113.421 50.6393 122.819 52.0495C134.114 53.7522 142.13 58.7564 147.083 66.4771C137.529 72.5406 129.975 81.6781 131.266 97.282C132.413 111.456 140.677 119.749 151 124.636Z" fill="black"/>
</svg>
