<svg width="180" height="180" viewBox="0 0 180 180" fill="none" xmlns="http://www.w3.org/2000/svg">
<path d="M34.8 145C31.005 145 27.7563 143.641 25.0537 140.924C22.3512 138.207 21 134.941 21 131.125V47.875C21 44.0594 22.3512 40.793 25.0537 38.0758C27.7563 35.3586 31.005 34 34.8 34H145.2C148.995 34 152.244 35.3586 154.946 38.0758C157.649 40.793 159 44.0594 159 47.875V131.125C159 134.941 157.649 138.207 154.946 140.924C152.244 143.641 148.995 145 145.2 145H34.8ZM145.2 61.75L93.6225 94.1828C93.0475 94.5297 92.4437 94.7898 91.8112 94.9633C91.1787 95.1367 90.575 95.2234 90 95.2234C89.425 95.2234 88.8212 95.1367 88.1887 94.9633C87.5562 94.7898 86.9525 94.5297 86.3775 94.1828L34.8 61.75V131.125H145.2V61.75ZM90 82.5625L145.2 47.875H34.8L90 82.5625ZM34.8 63.4844V53.2516V53.425V53.3383V63.4844Z" fill="black"/>
</svg>
