<svg width="180" height="180" viewBox="0 0 180 180" fill="none" xmlns="http://www.w3.org/2000/svg">
<g clip-path="url(#clip0_543_103)">
<path d="M91.49 76.5456V105.204H131.579C129.819 114.42 124.536 122.224 116.613 127.472L140.789 146.106C154.874 133.19 163 114.219 163 91.6828C163 86.4356 162.526 81.3896 161.646 76.5464L91.49 76.5456Z" fill="#4285F4"/>
<path d="M49.7435 104.085L44.291 108.232L24.991 123.166C37.248 147.317 62.3696 164.001 91.4883 164.001C111.6 164.001 128.462 157.408 140.787 146.106L116.611 127.472C109.975 131.912 101.51 134.603 91.4883 134.603C72.1209 134.603 55.6659 121.619 49.7739 104.128L49.7435 104.085Z" fill="#34A853"/>
<path d="M24.9912 56.8348C19.9126 66.7908 17.001 78.0256 17.001 90C17.001 101.974 19.9126 113.209 24.9912 123.165C24.9912 123.232 49.7765 104.06 49.7765 104.06C48.2867 99.6196 47.4061 94.9108 47.4061 89.9992C47.4061 85.0876 48.2867 80.3788 49.7765 75.9388L24.9912 56.8348Z" fill="#FBBC05"/>
<path d="M91.4898 45.4656C102.46 45.4656 112.212 49.2328 119.999 56.4984L141.33 35.3076C128.396 23.3332 111.602 16 91.4898 16C62.3711 16 37.248 32.6164 24.991 56.8348L49.7756 75.9404C55.6667 58.4492 72.1225 45.4656 91.4898 45.4656Z" fill="#EA4335"/>
</g>
<defs>
<clipPath id="clip0_543_103">
<rect width="146" height="148" fill="white" transform="translate(17 16)"/>
</clipPath>
</defs>
</svg>
