<svg width="180" height="180" viewBox="0 0 180 180" fill="none" xmlns="http://www.w3.org/2000/svg">
<path d="M147.475 154C132.544 154 117.793 150.745 103.221 144.235C88.6486 137.726 75.3903 128.499 63.4458 116.554C51.5014 104.61 42.2743 91.3514 35.7646 76.7792C29.2549 62.2069 26 47.4556 26 32.525C26 30.375 26.7167 28.5833 28.15 27.15C29.5833 25.7167 31.375 25 33.525 25H62.55C64.2222 25 65.7153 25.5674 67.0292 26.7021C68.3431 27.8368 69.1194 29.1806 69.3583 30.7333L74.0167 55.8167C74.2556 57.7278 74.1958 59.3403 73.8375 60.6542C73.4792 61.9681 72.8222 63.1028 71.8667 64.0583L54.4875 81.6167C56.8764 86.0361 59.7132 90.3062 62.9979 94.4271C66.2826 98.5479 69.8958 102.519 73.8375 106.342C77.5403 110.044 81.4222 113.478 85.4833 116.644C89.5444 119.809 93.8444 122.706 98.3833 125.333L115.225 108.492C116.3 107.417 117.703 106.61 119.435 106.073C121.167 105.535 122.869 105.386 124.542 105.625L149.267 110.642C150.939 111.119 152.312 111.985 153.387 113.24C154.462 114.494 155 115.897 155 117.45V146.475C155 148.625 154.283 150.417 152.85 151.85C151.417 153.283 149.625 154 147.475 154ZM47.6792 68L59.5042 56.175L56.4583 39.3333H40.5125C41.1097 44.2306 41.9458 49.0681 43.0208 53.8458C44.0958 58.6236 45.6486 63.3417 47.6792 68ZM111.821 132.142C116.479 134.172 121.227 135.785 126.065 136.979C130.902 138.174 135.769 138.95 140.667 139.308V123.542L123.825 120.137L111.821 132.142Z" fill="black"/>
</svg>
