<svg xmlns="http://www.w3.org/2000/svg" viewBox="0 0 982.71 982.71"><title>Risorsa 3</title><g id="Livello_2" data-name="Livello 2"><g id="Ñëîé_1" data-name="Ñëîé 1"><circle cx="491.36" cy="491.36" r="491.36" style="fill:#dd0510"/><path d="M598.67,491.36,729.38,360.64a75.12,75.12,0,0,0,0-106.24l-1.07-1.07a75.12,75.12,0,0,0-106.24,0L491.36,384.05,360.64,253.33a75.12,75.12,0,0,0-106.24,0l-1.07,1.07a75.12,75.12,0,0,0,0,106.24L384.05,491.36,253.33,622.07a75.12,75.12,0,0,0,0,106.24l1.07,1.07a75.12,75.12,0,0,0,106.24,0L491.36,598.67,622.07,729.38a75.12,75.12,0,0,0,106.24,0l1.07-1.07a75.12,75.12,0,0,0,0-106.24Z" style="fill:#fff"/></g></g></svg>