<svg xmlns="http://www.w3.org/2000/svg" viewBox="0 0 982.71 982.71"><title>Risorsa 2</title><g id="Livello_2" data-name="Livello 2"><g id="Ñëîé_1" data-name="Ñëîé 1"><circle cx="491.36" cy="491.36" r="491.36" style="fill:#05ad00"/><path d="M791.15,298.49l-1-1a68.08,68.08,0,0,0-96.27,0L409.09,582.35,288.8,462.06a68.08,68.08,0,0,0-96.27,0l-1,1a68.08,68.08,0,0,0,0,96.27L311.85,679.58l-.21.21,41.73,41.55a79.09,79.09,0,0,0,111.73-.12l41.43-41.43-.21-.21L791.15,394.76A68.08,68.08,0,0,0,791.15,298.49Z" style="fill:#fff"/></g></g></svg>