<svg width="60" height="60" viewBox="0 0 60 60" fill="none" xmlns="http://www.w3.org/2000/svg">
<path d="M27.8146 45.0785L3.07044 20.4798C2.35292 19.7664 2 18.8634 2 17.8433C2 16.7969 2.39482 15.8785 3.14094 15.1368C3.8363 14.4455 4.70199 14.0682 5.68734 14.0069C6.76689 13.9399 7.71733 14.36 8.49876 15.1368L30 36.5117L51.5012 15.1368C52.2472 14.3952 53.1683 14.005 54.2154 14.005C55.2625 14.005 56.1836 14.3952 56.9296 15.1368C57.6532 15.8562 58 16.7741 58 17.8083C58 18.8425 57.6532 19.7604 56.9296 20.4798L32.1854 45.0785C31.8829 45.3792 31.5379 45.6328 31.145 45.7891C30.7796 45.9343 30.394 46 30 46C29.606 46 29.2204 45.9343 28.855 45.7891C28.4621 45.6328 28.1171 45.3792 27.8146 45.0785Z" fill="white" stroke="white" stroke-width="2"/>
</svg>
