<svg width="60" height="60" viewBox="0 0 60 60" fill="none" xmlns="http://www.w3.org/2000/svg">
<path d="M47.5785 27.8146L22.9798 3.07044C22.2664 2.35292 21.3634 2 20.3433 2C19.2969 2 18.3785 2.39482 17.6368 3.14094C16.9455 3.8363 16.5682 4.70199 16.5069 5.68734C16.4399 6.76689 16.86 7.71733 17.6368 8.49876L39.0117 30L17.6368 51.5012C16.8952 52.2472 16.505 53.1683 16.505 54.2154C16.505 55.2625 16.8952 56.1836 17.6368 56.9296C18.3562 57.6532 19.2741 58 20.3083 58C21.3425 58 22.2604 57.6532 22.9798 56.9296L47.5785 32.1854C47.8792 31.8829 48.1328 31.5379 48.2891 31.145C48.4343 30.7796 48.5 30.394 48.5 30C48.5 29.606 48.4343 29.2204 48.2891 28.855C48.1328 28.4621 47.8792 28.1171 47.5785 27.8146Z" fill="black" stroke="black" stroke-width="2"/>
</svg>
