<svg width="34" height="60" viewBox="0 0 34 60" fill="none" xmlns="http://www.w3.org/2000/svg">
<path d="M5.40664 59.1384L33.2852 31.6449C33.5499 31.3838 33.7352 31.1227 33.8411 30.8616C33.9471 30.6005 34 30.3133 34 30C34 29.6867 33.9471 29.3995 33.8411 29.1384C33.7352 28.8773 33.5499 28.6162 33.2852 28.3551L5.40664 0.861619C4.82418 0.287207 4.08287 0 3.18271 0C2.28255 0 1.54124 0.287207 0.958781 0.861619C0.323373 1.48825 0.00567153 2.23238 0.00567153 3.09399C0.00567153 3.95561 0.323373 4.69974 0.958781 5.32637L25.978 30L0.958781 54.6736C0.270422 55.3525 -0.0472791 56.1097 0.00567153 56.9452C0.0586222 57.7807 0.376324 58.4856 0.958781 59.06C1.59419 59.6867 2.34874 60 3.22243 60C4.09611 60 4.82418 59.7128 5.40664 59.1384Z" fill="black" fill-opacity="0.5"/>
</svg>
