<svg width="60" height="34" viewBox="0 0 60 34" fill="none" xmlns="http://www.w3.org/2000/svg">
<path d="M0.861625 5.40664L28.3551 33.2852C28.6162 33.5499 28.8773 33.7352 29.1384 33.8411C29.3995 33.9471 29.6867 34 30 34C30.3133 34 30.6005 33.9471 30.8616 33.8411C31.1227 33.7352 31.3838 33.5499 31.6449 33.2852L59.1384 5.40664C59.7128 4.82418 60 4.08287 60 3.18271C60 2.28255 59.7128 1.54124 59.1384 0.958781C58.5117 0.323373 57.7676 0.00567153 56.906 0.00567153C56.0444 0.00567153 55.3003 0.323373 54.6736 0.958781L30 25.978L5.32637 0.958781C4.64752 0.270422 3.89034 -0.0472791 3.05483 0.00567153C2.21932 0.0586222 1.51437 0.376324 0.939953 0.958781C0.313321 1.59419 1.85914e-06 2.34874 1.85914e-06 3.22243C1.85914e-06 4.09611 0.287213 4.82418 0.861625 5.40664Z" fill="white"/>
</svg>
