<svg width="70" height="70" viewBox="0 0 70 70" fill="none" xmlns="http://www.w3.org/2000/svg">
<path d="M28.5934 64.1384L0.714834 36.6449C0.45008 36.3838 0.264752 36.1227 0.158851 35.8616C0.0529498 35.6005 0 35.3133 0 35C0 34.6867 0.0529498 34.3995 0.158851 34.1384C0.264752 33.8773 0.45008 33.6162 0.714834 33.3551L28.5934 5.86162C29.1758 5.28721 29.9171 5 30.8173 5C31.7174 5 32.4588 5.28721 33.0412 5.86162C33.6766 6.48825 33.9943 7.23238 33.9943 8.09399C33.9943 8.95561 33.6766 9.69974 33.0412 10.3264L8.02203 35L33.0412 59.6736C33.7296 60.3525 34.0473 61.1097 33.9943 61.9452C33.9414 62.7807 33.6237 63.4856 33.0412 64.06C32.4058 64.6867 31.6513 65 30.7776 65C29.9039 65 29.1758 64.7128 28.5934 64.1384Z" fill="black"/>
</svg>
