<svg width="70" height="70" viewBox="0 0 70 70" fill="none" xmlns="http://www.w3.org/2000/svg">
<path d="M15 67C13.2905 67 11.8631 66.4347 10.7179 65.3042C9.57262 64.1736 9 62.7645 9 61.077V21.5897C9 19.9021 9.57262 18.4931 10.7179 17.3625C11.8631 16.2319 13.2905 15.6667 15 15.6667H22V13.8333C22 10.2701 23.2643 7.24036 25.7928 4.74422C28.3214 2.24807 31.3905 1 35 1C38.6095 1 41.6786 2.24807 44.2072 4.74422C46.7357 7.24036 48 10.2701 48 13.8333V15.6667H55C56.7095 15.6667 58.1369 16.2319 59.2821 17.3625C60.4274 18.4931 61 19.9021 61 21.5897V61.077C61 62.7645 60.4274 64.1736 59.2821 65.3042C58.1369 66.4347 56.7095 67 55 67H15ZM15 63.3333H55C55.5714 63.3333 56.0952 63.0983 56.5715 62.6282C57.0476 62.1581 57.2857 61.641 57.2857 61.077V21.5897C57.2857 21.0257 57.0476 20.5086 56.5715 20.0384C56.0952 19.5684 55.5714 19.3333 55 19.3333H48V28.5C48 29.0218 47.8226 29.4578 47.4678 29.808C47.1131 30.1582 46.6715 30.3333 46.1429 30.3333C45.6143 30.3333 45.1726 30.1582 44.8179 29.808C44.4631 29.4578 44.2857 29.0218 44.2857 28.5V19.3333H25.7143V28.5C25.7143 29.0218 25.5369 29.4578 25.1821 29.808C24.8274 30.1582 24.3857 30.3333 23.8571 30.3333C23.3285 30.3333 22.8869 30.1582 22.5322 29.808C22.1774 29.4578 22 29.0218 22 28.5V19.3333H15C14.4286 19.3333 13.9048 19.5684 13.4285 20.0384C12.9524 20.5086 12.7143 21.0257 12.7143 21.5897V61.077C12.7143 61.641 12.9524 62.1581 13.4285 62.6282C13.9048 63.0983 14.4286 63.3333 15 63.3333ZM25.7143 15.6667H44.2857V13.8333C44.2857 11.2526 43.3917 9.07959 41.6035 7.31446C39.8155 5.54926 37.6143 4.66667 35 4.66667C32.3857 4.66667 30.1845 5.54926 28.3965 7.31446C26.6083 9.07959 25.7143 11.2526 25.7143 13.8333V15.6667Z" fill="black"/>
</svg>
