<svg width="70" height="70" viewBox="0 0 70 70" fill="none" xmlns="http://www.w3.org/2000/svg">
<path d="M34.9274 67C34.1911 67 33.4634 66.8539 32.7442 66.5617C32.025 66.2695 31.3917 65.8232 30.8444 65.2229L26.5073 60.9275C19.7847 54.2281 13.8529 47.7134 8.71177 41.3832C3.57059 35.0531 1 28.4746 1 21.6477C1 16.3775 2.63219 11.9519 5.89657 8.37116C9.16094 4.79039 13.1954 3 18 3C20.7558 3 23.6255 3.76369 26.609 5.29108C29.5925 6.81853 32.3895 9.69937 35 13.9336C37.6105 9.69937 40.4075 6.81853 43.391 5.29108C46.3745 3.76369 49.2442 3 52 3C56.8046 3 60.8391 4.79039 64.1034 8.37116C67.3678 11.9519 69 16.3775 69 21.6477C69 28.634 66.3241 35.3493 60.9722 41.7937C55.6204 48.238 49.7624 54.6239 43.3983 60.9514L39.0829 65.2229C38.5357 65.8232 37.8903 66.2695 37.1468 66.5617C36.4033 66.8539 35.6635 67 34.9274 67ZM33.1547 18.2369C30.8928 14.2365 28.5414 11.3875 26.1004 9.69008C23.6594 7.99265 20.9593 7.14394 18 7.14394C14.2222 7.14394 11.0741 8.52525 8.55556 11.2879C6.03704 14.0505 4.77778 17.5038 4.77778 21.6477C4.77778 24.7079 5.56724 27.8464 7.14616 31.0633C8.72508 34.2801 10.8452 37.5754 13.5066 40.9489C16.1681 44.3225 19.2266 47.7731 22.6823 51.3008C26.138 54.8285 29.7354 58.4597 33.4743 62.1946C33.9102 62.6196 34.4188 62.8321 35 62.8321C35.5812 62.8321 36.0898 62.6196 36.5257 62.1946C40.2646 58.4597 43.862 54.8285 47.3177 51.3008C50.7734 47.7731 53.8319 44.3225 56.4934 40.9489C59.1548 37.5754 61.2749 34.2801 62.8538 31.0633C64.4328 27.8464 65.2222 24.7079 65.2222 21.6477C65.2222 17.5038 63.963 14.0505 61.4444 11.2879C58.9259 8.52525 55.7778 7.14394 52 7.14394C49.0407 7.14394 46.3406 7.99265 43.8996 9.69008C41.4586 11.3875 39.1072 14.2365 36.8454 18.2369C36.6468 18.6088 36.3779 18.8877 36.0389 19.0737C35.6998 19.2596 35.3535 19.3526 35 19.3526C34.6465 19.3526 34.3002 19.2596 33.9611 19.0737C33.6221 18.8877 33.3532 18.6088 33.1547 18.2369Z" fill="black"/>
</svg>
