<svg width="71" height="70" viewBox="0 0 71 70" fill="none" xmlns="http://www.w3.org/2000/svg">
<path d="M35.4263 67C34.6792 67 33.9408 66.8539 33.211 66.5617C32.4812 66.2695 31.8387 65.8232 31.2833 65.2229L26.8824 60.9275C20.061 54.2281 14.0419 47.7134 8.82518 41.3832C3.60839 35.0531 1 28.4746 1 21.6477C1 16.3775 2.65619 11.9519 5.96857 8.37116C9.28096 4.79039 13.3748 3 18.25 3C21.0464 3 23.9582 3.76369 26.9856 5.29108C30.013 6.81853 32.8511 9.69937 35.5 13.9336C38.1489 9.69937 40.987 6.81853 44.0144 5.29108C47.0418 3.76369 49.9536 3 52.75 3C57.6252 3 61.719 4.79039 65.0314 8.37116C68.3438 11.9519 70 16.3775 70 21.6477C70 28.634 67.2847 35.3493 61.8542 41.7937C56.4236 48.238 50.4795 54.6239 44.0218 60.9514L39.643 65.2229C39.0876 65.8232 38.4328 66.2695 37.6784 66.5617C36.924 66.8539 36.1733 67 35.4263 67Z" fill="black"/>
</svg>
