<svg width="71" height="70" viewBox="0 0 71 70" fill="none" xmlns="http://www.w3.org/2000/svg">
<path d="M35.4263 67C34.6792 67 33.9408 66.8539 33.211 66.5617C32.4812 66.2695 31.8387 65.8232 31.2833 65.2229L26.8824 60.9275C20.061 54.2281 14.0419 47.7134 8.82518 41.3832C3.60839 35.0531 1 28.4746 1 21.6477C1 16.3775 2.65619 11.9519 5.96857 8.37116C9.28096 4.79039 13.3748 3 18.25 3C21.0464 3 23.9582 3.76369 26.9856 5.29108C30.013 6.81853 32.8511 9.69937 35.5 13.9336C38.1489 9.69937 40.987 6.81853 44.0144 5.29108C47.0418 3.76369 49.9536 3 52.75 3C57.6252 3 61.719 4.79039 65.0314 8.37116C68.3438 11.9519 70 16.3775 70 21.6477C70 28.634 67.2847 35.3493 61.8542 41.7937C56.4236 48.238 50.4795 54.6239 44.0218 60.9514L39.643 65.2229C39.0876 65.8232 38.4328 66.2695 37.6784 66.5617C36.924 66.8539 36.1733 67 35.4263 67ZM33.6275 18.2369C31.3324 14.2365 28.9464 11.3875 26.4695 9.69008C23.9926 7.99265 21.2528 7.14394 18.25 7.14394C14.4167 7.14394 11.2222 8.52525 8.66667 11.2879C6.11111 14.0505 4.83333 17.5038 4.83333 21.6477C4.83333 24.7079 5.6344 27.8464 7.23655 31.0633C8.83869 34.2801 10.99 37.5754 13.6905 40.9489C16.3911 44.3225 19.4947 47.7731 23.0011 51.3008C26.5077 54.8285 30.1579 58.4597 33.9519 62.1946C34.3942 62.6196 34.9102 62.8321 35.5 62.8321C36.0898 62.8321 36.6058 62.6196 37.0481 62.1946C40.8421 58.4597 44.4923 54.8285 47.9989 51.3008C51.5053 47.7731 54.6089 44.3225 57.3095 40.9489C60.01 37.5754 62.1613 34.2801 63.7635 31.0633C65.3656 27.8464 66.1667 24.7079 66.1667 21.6477C66.1667 17.5038 64.8889 14.0505 62.3333 11.2879C59.7778 8.52525 56.5833 7.14394 52.75 7.14394C49.7472 7.14394 47.0074 7.99265 44.5305 9.69008C42.0536 11.3875 39.6676 14.2365 37.3725 18.2369C37.171 18.6088 36.8982 18.8877 36.5542 19.0737C36.2101 19.2596 35.8587 19.3526 35.5 19.3526C35.1413 19.3526 34.7899 19.2596 34.4458 19.0737C34.1018 18.8877 33.829 18.6088 33.6275 18.2369Z" fill="black"/>
</svg>
