<svg width="80" height="80" viewBox="0 0 80 80" fill="none" xmlns="http://www.w3.org/2000/svg">
<path d="M50.3072 43.4942L47.4111 40.5987C48.552 37.4839 47.9596 34.8955 45.6339 32.8335C43.3083 30.7716 40.7852 30.2452 38.0647 31.2542L35.1686 28.3587C35.9145 27.8761 36.7483 27.5252 37.6697 27.3058C38.5912 27.0865 39.5346 26.9768 40.5 26.9768C43.6155 26.9768 46.2592 28.0626 48.4313 30.2342C50.6033 32.4058 51.6894 35.049 51.6894 38.1639C51.6894 39.129 51.5687 40.0832 51.3274 41.0265C51.086 41.9697 50.746 42.7923 50.3072 43.4942ZM58.7979 51.9832L56.1651 49.351C58.3152 47.7716 60.1911 46.0058 61.7927 44.0535C63.3943 42.1013 64.5681 40.1381 65.3141 38.1639C63.1201 33.2942 59.8291 29.4445 55.4411 26.6148C51.0531 23.7852 46.2921 22.3703 41.1582 22.3703C39.3152 22.3703 37.4284 22.5458 35.4977 22.8968C33.567 23.2477 32.0531 23.6645 30.9561 24.1471L27.9284 21.0542C29.4642 20.3523 31.4278 19.7381 33.8193 19.2116C36.2107 18.6852 38.5473 18.4219 40.8291 18.4219C46.7529 18.4219 52.2159 20.0452 57.2182 23.2916C62.2206 26.5381 66.0381 30.9032 68.6709 36.3871C68.8025 36.6065 68.8903 36.8697 68.9342 37.1768C68.9781 37.4839 69 37.8129 69 38.1639C69 38.5148 68.9781 38.8548 68.9342 39.1839C68.8903 39.5129 68.8025 39.7871 68.6709 40.0065C67.53 42.4194 66.1259 44.6348 64.4584 46.6529C62.791 48.671 60.9042 50.4477 58.7979 51.9832ZM61.1674 65.4077L51.5577 55.9974C50.0219 56.6116 48.2887 57.0832 46.358 57.4123C44.4273 57.7413 42.4746 57.9058 40.5 57.9058C34.4446 57.9058 28.8938 56.2826 23.8476 53.0361C18.8014 49.7897 14.9619 45.4245 12.3291 39.9406C12.1975 39.6774 12.1097 39.4032 12.0658 39.1181C12.0219 38.8329 12 38.5148 12 38.1639C12 37.8129 12.0329 37.4729 12.0987 37.1439C12.1645 36.8148 12.2413 36.5406 12.3291 36.3213C13.2506 34.3471 14.4244 32.4277 15.8505 30.5632C17.2766 28.6987 18.955 26.9329 20.8857 25.2658L13.9746 18.3561C13.5797 17.9613 13.3822 17.5006 13.3822 16.9742C13.3822 16.4477 13.5797 15.9871 13.9746 15.5923C14.3695 15.1974 14.8412 15 15.3897 15C15.9382 15 16.4099 15.1974 16.8048 15.5923L63.9319 62.7097C64.2829 63.0606 64.4584 63.4884 64.4584 63.9929C64.4584 64.4974 64.2829 64.9471 63.9319 65.3419C63.5808 65.7806 63.1311 66 62.5826 66C62.0341 66 61.5624 65.8026 61.1674 65.4077ZM23.5843 28.0297C21.9607 29.2142 20.392 30.7716 18.8782 32.7019C17.3643 34.6323 16.2783 36.4529 15.6201 38.1639C17.858 43.0335 21.2258 46.8832 25.7234 49.7129C30.2211 52.5426 35.3222 53.9574 41.0266 53.9574C42.4746 53.9574 43.9007 53.8697 45.3048 53.6942C46.709 53.5187 47.7621 53.2555 48.4642 52.9045L44.2517 48.6929C43.7691 48.9123 43.1767 49.0768 42.4746 49.1864C41.7725 49.2961 41.1143 49.351 40.5 49.351C37.4284 49.351 34.7956 48.2761 32.6016 46.1265C30.4076 43.9768 29.3106 41.3226 29.3106 38.1639C29.3106 37.5058 29.3655 36.8477 29.4752 36.1897C29.5849 35.5316 29.7494 34.9394 29.9688 34.4129L23.5843 28.0297Z" fill="black"/>
</svg>
