<svg width="70" height="70" viewBox="0 0 70 70" fill="none" xmlns="http://www.w3.org/2000/svg">
<path d="M9.28571 62.84H25.1099V41.72C25.1099 40.768 25.4416 39.97 26.1051 39.326C26.7685 38.682 27.5906 38.36 28.5714 38.36H41.4286C42.4094 38.36 43.2315 38.682 43.8949 39.326C44.5584 39.97 44.8901 40.768 44.8901 41.72V62.84H60.7143V26.6801C60.7143 26.2534 60.6181 25.8667 60.4259 25.52C60.2335 25.1734 59.9725 24.8667 59.6429 24.6001L36.5659 7.72004C36.1263 7.34668 35.6044 7.16 35 7.16C34.3956 7.16 33.8737 7.34668 33.4341 7.72004L10.3571 24.6001C10.0275 24.8667 9.7665 25.1734 9.57414 25.52C9.38186 25.8667 9.28571 26.2534 9.28571 26.6801V62.84ZM5 62.84V26.6801C5 25.616 5.24518 24.608 5.73554 23.6561C6.22596 22.704 6.90386 21.92 7.76921 21.304L30.8462 4.34399C32.0538 3.448 33.434 3 34.9868 3C36.5395 3 37.9285 3.448 39.1538 4.34399L62.2308 21.304C63.0961 21.92 63.774 22.704 64.2645 23.6561C64.7548 24.608 65 25.616 65 26.6801V62.84C65 63.9547 64.5728 64.9267 63.7185 65.7561C62.864 66.5854 61.8626 67 60.7143 67H44.0659C43.0852 67 42.2631 66.678 41.5996 66.0341C40.9361 65.39 40.6044 64.592 40.6044 63.6401V42.5201H29.3956V63.6401C29.3956 64.592 29.0639 65.39 28.4004 66.0341C27.7369 66.678 26.9148 67 25.9341 67H9.28571C8.13736 67 7.13596 66.5854 6.28154 65.7561C5.42718 64.9267 5 63.9547 5 62.84Z" fill="black"/>
</svg>
