<svg width="70" height="70" viewBox="0 0 70 70" fill="none" xmlns="http://www.w3.org/2000/svg">
<path d="M35.5 32.0233C31.5518 32.0233 28.1719 30.6024 25.3603 27.7605C22.5487 24.9187 21.1429 21.5024 21.1429 17.5117C21.1429 13.5209 22.5487 10.1046 25.3603 7.26278C28.1719 4.42093 31.5518 3 35.5 3C39.4482 3 42.8281 4.42093 45.6397 7.26278C48.4513 10.1046 49.8571 13.5209 49.8571 17.5117C49.8571 21.5024 48.4513 24.9187 45.6397 27.7605C42.8281 30.6024 39.4482 32.0233 35.5 32.0233ZM2 61.9767V59.0371C2 57.0403 2.5752 55.172 3.72561 53.4325C4.87602 51.693 6.42372 50.3426 8.36871 49.3814C12.8844 47.1922 17.4032 45.5503 21.9251 44.4558C26.447 43.3612 30.972 42.8139 35.5 42.8139C40.028 42.8139 44.553 43.3612 49.0749 44.4558C53.5968 45.5503 58.1156 47.1922 62.6313 49.3814C64.5763 50.3426 66.124 51.693 67.2744 53.4325C68.4248 55.172 69 57.0403 69 59.0371V61.9767C69 63.3969 68.523 64.5891 67.569 65.5534C66.6148 66.5178 65.4353 67 64.0303 67H6.96972C5.56472 67 4.38516 66.5178 3.43105 65.5534C2.47702 64.5891 2 63.3969 2 61.9767ZM6.78571 62.1627H64.2143V59.0371C64.2143 57.9643 63.8722 56.9566 63.1881 56.0139C62.504 55.0713 61.5576 54.2744 60.3489 53.6232C56.4099 51.6945 52.3486 50.217 48.1649 49.1906C43.9813 48.1643 39.7597 47.6511 35.5 47.6511C31.2403 47.6511 27.0187 48.1643 22.8351 49.1906C18.6514 50.217 14.5901 51.6945 10.6511 53.6232C9.44243 54.2744 8.49601 55.0713 7.81189 56.0139C7.12777 56.9566 6.78571 57.9643 6.78571 59.0371V62.1627ZM35.5 27.1861C38.1321 27.1861 40.3854 26.2388 42.2598 24.3443C44.1342 22.4497 45.0714 20.1722 45.0714 17.5117C45.0714 14.8513 44.1342 12.5737 42.2598 10.6792C40.3854 8.78461 38.1321 7.83732 35.5 7.83732C32.8679 7.83732 30.6146 8.78461 28.7402 10.6792C26.8658 12.5737 25.9286 14.8513 25.9286 17.5117C25.9286 20.1722 26.8658 22.4497 28.7402 24.3443C30.6146 26.2388 32.8679 27.1861 35.5 27.1861Z" fill="black"/>
</svg>
