<svg width="70" height="70" viewBox="0 0 70 70" fill="none" xmlns="http://www.w3.org/2000/svg">
<path d="M25.6662 48.307C19.343 48.307 13.9845 46.1114 9.5907 41.72C5.1969 37.3287 3 31.9732 3 25.6535C3 19.3339 5.1969 13.9784 9.5907 9.58701C13.9845 5.19567 19.343 3 25.6662 3C31.9895 3 37.348 5.19567 41.7417 9.58701C46.1355 13.9784 48.3324 19.3339 48.3324 25.6535C48.3324 28.4003 47.8456 31.0584 46.8721 33.6278C45.8985 36.1973 44.6207 38.3942 43.0386 40.2187L66.4046 63.5715C66.7747 63.9415 66.9725 64.3951 66.9978 64.9323C67.0232 65.4694 66.8254 65.9483 66.4046 66.369C65.9837 66.7897 65.5172 67 65.005 67C64.4928 67 64.0263 66.7897 63.6055 66.369L40.2395 43.0162C38.2619 44.6987 35.9877 46.0012 33.4169 46.9235C30.846 47.8459 28.2624 48.307 25.6662 48.307ZM25.6662 44.3541C30.9144 44.3541 35.345 42.5486 38.9579 38.9377C42.5708 35.3268 44.3772 30.8988 44.3772 25.6535C44.3772 20.4083 42.5708 15.9802 38.9579 12.3693C35.345 8.75841 30.9144 6.95296 25.6662 6.95296C20.418 6.95296 15.9875 8.75841 12.3745 12.3693C8.7617 15.9802 6.95527 20.4083 6.95527 25.6535C6.95527 30.8988 8.7617 35.3268 12.3745 38.9377C15.9875 42.5486 20.418 44.3541 25.6662 44.3541Z" fill="black"/>
</svg>
