<svg width="80" height="80" viewBox="0 0 80 80" fill="none" xmlns="http://www.w3.org/2000/svg">
<path d="M40.0079 51.3333C43.1728 51.3333 45.8603 50.2307 48.0704 48.0255C50.2806 45.8203 51.3857 43.1425 51.3857 39.9921C51.3857 36.8418 50.278 34.1667 48.0625 31.9667C45.8472 29.7667 43.157 28.6667 39.9921 28.6667C36.8272 28.6667 34.1397 29.7693 31.9296 31.9745C29.7194 34.1797 28.6143 36.8575 28.6143 40.0079C28.6143 43.1582 29.722 45.8333 31.9375 48.0333C34.1529 50.2333 36.843 51.3333 40.0079 51.3333ZM39.9843 47.4667C37.8962 47.4667 36.1266 46.7392 34.6755 45.2843C33.2244 43.8294 32.4988 42.0627 32.4988 39.9843C32.4988 37.9059 33.2296 36.1444 34.6913 34.7C36.1529 33.2556 37.9277 32.5333 40.0157 32.5333C42.1038 32.5333 43.8734 33.2608 45.3245 34.7157C46.7756 36.1706 47.5012 37.9373 47.5012 40.0157C47.5012 42.0941 46.7704 43.8556 45.3087 45.3C43.8471 46.7444 42.0723 47.4667 39.9843 47.4667ZM40 60C33.8383 60 28.2236 58.3333 23.1559 55C18.0881 51.6667 14.1734 47.265 11.4116 41.7949C11.2711 41.5761 11.1674 41.3072 11.1005 40.9884C11.0335 40.6696 11 40.3401 11 40C11 39.6599 11.0335 39.3304 11.1005 39.0116C11.1674 38.6928 11.2711 38.4239 11.4116 38.2051C14.1734 32.735 18.0881 28.3333 23.1559 25C28.2236 21.6667 33.8383 20 40 20C46.1617 20 51.7764 21.6667 56.8441 25C61.9119 28.3333 65.8266 32.735 68.5884 38.2051C68.7289 38.4239 68.8326 38.6928 68.8995 39.0116C68.9665 39.3304 69 39.6599 69 40C69 40.3401 68.9665 40.6696 68.8995 40.9884C68.8326 41.3072 68.7289 41.5761 68.5884 41.7949C65.8266 47.265 61.9119 51.6667 56.8441 55C51.7764 58.3333 46.1617 60 40 60ZM39.9887 56C45.3988 56 50.3699 54.5444 54.9018 51.6333C59.4338 48.7222 62.883 44.8444 65.2494 40C62.883 35.1556 59.4376 31.2778 54.9132 28.3667C50.3887 25.4556 45.4214 24 40.0113 24C34.6012 24 29.6301 25.4556 25.0982 28.3667C20.5662 31.2778 17.0947 35.1556 14.6836 40C17.0947 44.8444 20.5624 48.7222 25.0868 51.6333C29.6113 54.5444 34.5786 56 39.9887 56Z" fill="black"/>
</svg>
